<svg xmlns="http://www.w3.org/2000/svg" viewBox="0 0 32 32" width="32" height="32">
  <rect width="32" height="32" rx="6" fill="#2c1a0e"/>
  <g transform="translate(5,5) scale(0.916)" stroke="#c9a84c" stroke-width="1.8" stroke-linecap="round" stroke-linejoin="round" fill="none">
    <path d="M6 5h14a2 2 0 0 1 2 2v12a2 2 0 0 1-2 2H6a2 2 0 0 1-2-2V7a2 2 0 0 1 2-2z"/>
    <path d="M6 5a2 2 0 0 0-2 2v1a2 2 0 0 0 2 2h0a2 2 0 0 1 2 2v1"/>
    <path d="M8 21v1a2 2 0 0 0 2 2h10a2 2 0 0 0 2-2V9a2 2 0 0 0-2-2"/>
    <line x1="11" y1="11" x2="19" y2="11"/>
    <line x1="11" y1="15" x2="19" y2="15"/>
    <line x1="11" y1="19" x2="15" y2="19"/>
  </g>
</svg>
